<svg width="27" height="28" viewBox="0 0 27 28" fill="none" xmlns="http://www.w3.org/2000/svg">
<g clip-path="url(#clip0_5066_6261)">
<path d="M18.9739 23.1387L13.5 21.5566L8.02612 23.1387C7.97871 23.2336 7.96289 23.3285 7.96289 23.4393V26.7088H19.0371V23.4393C19.0371 23.3285 19.0213 23.2336 18.9739 23.1387Z" fill="#646D73"/>
<path d="M19.0371 26.7088V23.4393C19.0371 23.3285 19.0213 23.2336 18.9739 23.1387L13.5 21.5566V26.7088H19.0371Z" fill="#474F54"/>
<path d="M26.209 2.08203H22.1672C22.1741 1.81483 22.2012 1.56313 22.2012 1.29102C22.2012 0.847994 21.8532 0.5 21.4102 0.5H5.58984C5.14682 0.5 4.79883 0.847994 4.79883 1.29102C4.79883 1.56313 4.82588 1.81483 4.83274 2.08203H0.791016C0.353795 2.08203 0 2.43583 0 2.87305V4.87685C0 9.29356 3.53805 12.8815 7.89819 13.1124C8.80653 14.3631 9.88458 15.2912 11.1111 15.8141C10.9213 19.6584 8.72227 22.332 8.20025 22.8858C8.12109 22.949 8.05781 23.0439 8.02617 23.1389H18.9739C18.9422 23.0439 18.879 22.949 18.7998 22.8858C18.2619 22.332 16.0787 19.6742 15.8889 15.8141C17.1157 15.2911 18.2002 14.3628 19.1093 13.1116C23.4657 12.8769 27 9.29108 27 4.87685V2.87305C27 2.43583 26.6462 2.08203 26.209 2.08203ZM1.58203 4.87685V3.66406H4.90061C5.1059 6.27853 5.67285 9.0475 6.86443 11.4006C3.87756 10.728 1.58203 8.06438 1.58203 4.87685ZM25.418 4.87685C25.418 8.06274 23.1245 10.7251 20.1398 11.3992C21.322 9.04619 21.8921 6.304 22.0994 3.66406H25.418V4.87685Z" fill="#FED843"/>
<path d="M26.209 2.08203H22.1672C22.1741 1.81483 22.2012 1.56313 22.2012 1.29102C22.2012 0.847994 21.8532 0.5 21.4102 0.5H13.5V23.1389H18.9739C18.9422 23.0439 18.879 22.949 18.7998 22.8858C18.2619 22.332 16.0787 19.6742 15.8889 15.8141C17.1157 15.2911 18.2002 14.3628 19.1093 13.1116C23.4657 12.8769 27 9.29108 27 4.87685V2.87305C27 2.43583 26.6462 2.08203 26.209 2.08203ZM25.418 4.87685C25.418 8.06274 23.1245 10.7251 20.1398 11.3992C21.3221 9.04619 21.8922 6.304 22.0994 3.66406H25.418V4.87685Z" fill="#FABE2C"/>
<path d="M14.762 10.5615L13.4998 9.90566L12.2375 10.5615C11.9733 10.6975 11.6504 10.6751 11.4079 10.4997C11.1653 10.3236 11.0433 10.0254 11.0927 9.73032L11.3245 8.32516L10.3126 7.32637C10.0923 7.11163 10.0249 6.79328 10.1148 6.51837C10.2075 6.23408 10.4531 6.02552 10.7498 5.98074L12.1557 5.76907L12.7922 4.4968C13.061 3.9607 13.9385 3.9607 14.2074 4.4968L14.8439 5.76907L16.2498 5.98074C16.5464 6.02557 16.792 6.23413 16.8847 6.51837C16.9774 6.8034 16.9017 7.11627 16.687 7.32637L15.6751 8.32516L15.9068 9.73032C15.9563 10.0254 15.8342 10.3236 15.5916 10.4997C15.3507 10.6743 15.0284 10.7001 14.762 10.5615Z" fill="#FABE2C"/>
<path d="M14.7623 10.5615C15.0287 10.7001 15.351 10.6743 15.5919 10.4997C15.8344 10.3236 15.9565 10.0254 15.9071 9.73034L15.6753 8.32518L16.6872 7.32639C16.9019 7.1163 16.9777 6.80343 16.885 6.5184C16.7923 6.23411 16.5466 6.02554 16.25 5.98077L14.8441 5.7691L14.2076 4.49683C14.0732 4.22878 13.7866 4.09473 13.5 4.09473V9.90568L14.7623 10.5615Z" fill="#FF9100"/>
<path d="M19.8281 27.5H7.17188C6.73465 27.5 6.38086 27.1462 6.38086 26.709C6.38086 26.2718 6.73465 25.918 7.17188 25.918H19.8281C20.2653 25.918 20.6191 26.2718 20.6191 26.709C20.6191 27.1462 20.2653 27.5 19.8281 27.5Z" fill="#474F54"/>
<path d="M19.8281 25.918H13.5V27.5H19.8281C20.2653 27.5 20.6191 27.1462 20.6191 26.709C20.6191 26.2718 20.2653 25.918 19.8281 25.918Z" fill="#32393F"/>
</g>
<defs>
<clipPath id="clip0_5066_6261">
<rect width="27" height="27" fill="white" transform="translate(0 0.5)"/>
</clipPath>
</defs>
</svg>
