<svg width="512" height="512" viewBox="0 0 512 512" fill="none" xmlns="http://www.w3.org/2000/svg">
<g clip-path="url(#clip0_293_2382)">
<ellipse cx="365.343" cy="221.391" rx="145.413" ry="145.413" transform="rotate(-168.115 365.343 221.391)" fill="#F23F3F"/>
<g clip-path="url(#clip1_293_2382)">
<path d="M454.74 158.476L436.953 154.733C430.087 153.288 423.327 157.698 421.882 164.563L404.662 246.383C403.217 253.249 407.627 260.01 414.493 261.455L432.28 265.198C439.145 266.643 445.906 262.233 447.351 255.367L464.571 173.548C466.016 166.682 461.606 159.921 454.74 158.476Z" fill="white"/>
<path d="M342.939 300.262C350.053 301.76 354.359 298.951 358.103 281.164C361.661 264.259 380.895 254.101 392.899 249.309L411.449 161.172C401.168 153.502 380.009 140.891 344.613 133.442L333.229 131.046C319.355 128.126 305.449 135.601 300.226 148.767L282.524 193.336C275.868 210.139 285.904 228.82 303.549 232.533L337.131 239.601C337.131 239.601 329.548 249.15 325.805 266.937C321.313 288.281 335.824 298.765 342.939 300.262Z" fill="white"/>
</g>
<circle cx="152.486" cy="270.871" r="145.413" transform="rotate(15 152.486 270.871)" fill="#64CF13"/>
<g clip-path="url(#clip2_293_2382)">
<path d="M59.7939 328.836L77.3511 333.54C84.1282 335.356 91.1184 331.32 92.9343 324.543L114.575 243.78C116.391 237.003 112.355 230.013 105.578 228.197L88.0205 223.492C81.2434 221.676 74.2533 225.712 72.4374 232.489L50.7969 313.253C48.981 320.03 53.0168 327.02 59.7939 328.836Z" fill="white"/>
<path d="M179.135 193.334C172.112 191.452 167.66 194.023 162.955 211.58C158.484 228.267 138.726 237.364 126.479 241.497L103.167 328.497C113.017 336.713 133.459 350.455 168.398 359.817L179.634 362.828C193.329 366.498 207.622 359.789 213.552 346.926L233.649 303.385C241.209 286.969 232.203 267.771 214.786 263.104L181.638 254.222C181.638 254.222 189.728 245.099 194.432 227.542C200.077 206.473 186.158 195.216 179.135 193.334Z" fill="white"/>
</g>
</g>
<defs>
<clipPath id="clip0_293_2382">
<rect width="512" height="512" fill="white"/>
</clipPath>
<clipPath id="clip1_293_2382">
<rect width="174.495" height="174.495" fill="white" transform="translate(432.75 324.736) rotate(-168.115)"/>
</clipPath>
<clipPath id="clip2_293_2382">
<rect width="174.495" height="174.495" fill="white" transform="translate(90.7852 164.016) rotate(15)"/>
</clipPath>
</defs>
</svg>
