<svg width="512" height="458" viewBox="0 0 512 458" fill="none" xmlns="http://www.w3.org/2000/svg">
<path d="M511.873 448.884L471.649 227.273C471.248 225.061 469.876 223.145 467.91 222.052L366.668 165.742C365.354 165.01 363.881 164.719 362.434 164.831L380.853 402.439L380.236 402.715L501.4 457.072C502.386 457.513 503.434 457.731 504.477 457.731C506.128 457.731 507.764 457.188 509.109 456.135C511.307 454.419 512.37 451.627 511.873 448.884Z" fill="#44C868"/>
<path d="M255.995 219.574L152.45 165.643C151.209 164.996 149.833 164.732 148.478 164.823C148.837 164.801 149.198 164.803 149.556 164.831L131.137 402.44L252.918 457.074C253.901 457.514 254.95 457.733 255.995 457.733V219.574Z" fill="#44C868"/>
<path d="M149.56 164.836C148.113 164.724 146.64 165.015 145.326 165.746L44.083 222.056C42.117 223.149 40.745 225.064 40.344 227.277L0.120878 448.888C-0.377123 451.63 0.686879 454.422 2.88388 456.14C4.23089 457.193 5.86589 457.736 7.51589 457.736C8.55889 457.736 9.6079 457.519 10.5929 457.077L131.097 403.016L149.56 164.836Z" fill="#4CE166"/>
<path d="M362.439 164.831C361.443 164.908 360.458 165.173 359.545 165.649L256 219.579V457.738H256.001C257.046 457.738 258.096 457.52 259.078 457.079L380.859 402.444L362.439 164.831Z" fill="#4CE166"/>
<path d="M28.1593 294.436L19.9883 339.455L140.983 275.549L143.792 239.31L144.258 233.3L28.1593 294.436Z" fill="#A26D3E"/>
<path d="M142.066 261.493L140.977 275.545L19.9829 339.451L0.120878 448.885C-0.377123 451.627 0.686879 454.419 2.88388 456.137C4.23089 457.19 5.86589 457.733 7.51589 457.733C8.55889 457.733 9.6079 457.516 10.5929 457.074L131.097 403.012L142.066 261.493Z" fill="#A8EEFC"/>
<path d="M256.03 249.279L144.252 233.296L140.977 275.545L256 450.224V386.706L187.363 278.628L256.03 286.841V249.279Z" fill="#503720"/>
<path d="M459.947 217.619L411.312 190.568L365.27 201.326L365.846 208.762L368.12 238.096L459.947 217.619Z" fill="#503720"/>
<path d="M372.196 290.779L367.836 234.53L365.263 201.331L256.023 249.283V286.845L327.38 255.815L372.196 290.779Z" fill="#A26D3E"/>
<path d="M511.885 448.887L501.782 393.221L368.125 238.1L372.209 290.778L509.279 455.999C511.363 454.272 512.37 451.56 511.885 448.887Z" fill="#503720"/>
<path d="M256.483 0.662109C198.52 0.662109 151.363 47.7802 151.363 105.696C151.363 141.522 168.372 179.986 201.919 220.019C226.558 249.422 250.862 268.333 251.885 269.124C253.239 270.171 254.861 270.694 256.484 270.694C258.106 270.694 259.729 270.171 261.083 269.124C262.105 268.333 286.411 249.422 311.05 220.019C344.597 179.986 361.606 141.523 361.606 105.696C361.604 47.7802 314.447 0.662109 256.483 0.662109ZM295.414 105.695C295.414 127.177 277.984 144.593 256.483 144.593C234.983 144.593 217.553 127.178 217.553 105.695C217.553 84.2123 234.983 66.7972 256.483 66.7972C277.984 66.7972 295.414 84.2133 295.414 105.695Z" fill="#FF4A4A"/>
<path d="M256.485 0.662109C251.891 0.662109 247.366 0.96011 242.926 1.53411C294.509 8.20112 334.488 52.3702 334.488 105.696C334.488 141.522 317.479 179.986 283.932 220.019C268.087 238.927 252.392 253.486 242.927 261.688C248.181 266.24 251.523 268.842 251.887 269.124C253.241 270.171 254.863 270.694 256.486 270.694C258.108 270.694 259.731 270.171 261.085 269.124C262.107 268.333 286.412 249.422 311.051 220.019C344.598 179.986 361.607 141.523 361.607 105.696C361.605 47.7802 314.448 0.662109 256.485 0.662109Z" fill="#E7343F"/>
<path d="M259.078 457.073L304.363 436.757L256 386.706V457.732H256.001C257.046 457.732 258.095 457.515 259.078 457.073Z" fill="#A26D3E"/>
<path d="M471.649 227.272C471.248 225.06 469.876 223.144 467.91 222.051L459.94 217.618L368.113 238.095L501.77 393.217L471.649 227.272Z" fill="#1EA4E9"/>
<path d="M255.996 457.731C255.997 457.731 255.997 457.731 255.996 457.731V450.223L140.974 275.544L131.137 402.439L252.918 457.073C253.901 457.514 254.95 457.731 255.996 457.731Z" fill="#1EA4E9"/>
</svg>
