<svg width="521" height="512" viewBox="0 0 521 512" fill="none" xmlns="http://www.w3.org/2000/svg">
<path fill-rule="evenodd" clip-rule="evenodd" d="M486.867 432.923V344.462H501.568C512.3 344.462 521 335.442 521 324.317V187.683C521 176.558 512.3 167.538 501.568 167.538H486.867V79.0769C486.867 49.7634 463.944 26 435.667 26H60.2C31.923 26 9 49.7633 9 79.0769V432.923C9 462.237 31.923 486 60.2 486H435.667C463.944 486 486.867 462.237 486.867 432.923ZM486.867 202.923V309.077L333.267 309.077C304.99 309.077 282.067 285.314 282.067 256C282.067 226.686 304.99 202.923 333.267 202.923H486.867Z" fill="#B8B8B8"/>
</svg>
