<svg width="512" height="512" viewBox="0 0 512 512" fill="none" xmlns="http://www.w3.org/2000/svg">
<path d="M404.303 99.4688H80.5349C57.3018 99.4688 38.4004 118.37 38.4004 141.604V147.319C38.4004 170.553 57.3018 189.454 80.5349 189.454H404.305C407.836 189.454 410.697 186.593 410.697 183.062V105.861C410.696 102.33 407.835 99.4688 404.303 99.4688Z" fill="#7C3D1E"/>
<path d="M40.1454 129.625C39.0158 133.424 38.4004 137.442 38.4004 141.604V147.319C38.4004 170.552 57.3018 189.454 80.5349 189.454H404.305C407.836 189.454 410.697 186.593 410.697 183.062V159.757H80.5349C61.4354 159.757 45.3143 147.046 40.1454 129.625Z" fill="#68321A"/>
<path d="M242.132 79.8107L217.849 55.528C215.353 53.0324 211.305 53.0324 208.808 55.528L85.7979 178.538C83.9695 180.367 83.423 183.116 84.4132 185.505C85.4018 187.894 87.7342 189.451 90.319 189.451H138.885C140.58 189.451 142.206 188.778 143.406 187.58L242.133 88.8522C243.332 87.6528 244.005 86.0276 244.005 84.3319C244.005 82.6361 243.331 81.0109 242.132 79.8107Z" fill="#78AA17"/>
<path d="M104.301 160.05L85.8096 178.542C83.9812 180.371 83.4347 183.119 84.4249 185.508C85.4135 187.898 87.7459 189.455 90.3307 189.455H138.897C140.592 189.455 142.218 188.782 143.417 187.583L170.95 160.051L104.301 160.05Z" fill="#6D8915"/>
<path d="M389.432 178.538L266.423 55.528C263.926 53.0324 259.879 53.0324 257.382 55.528L134.372 178.538C132.544 180.367 131.997 183.116 132.987 185.505C133.976 187.894 136.308 189.451 138.893 189.451H384.914C387.499 189.451 389.83 187.894 390.82 185.505C391.807 183.116 391.261 180.367 389.432 178.538Z" fill="#64CF13"/>
<path d="M134.372 178.543C132.544 180.372 131.997 183.12 132.987 185.509C133.976 187.898 136.308 189.456 138.893 189.456H384.914C387.499 189.456 389.83 187.898 390.82 185.509C391.809 183.12 391.262 180.372 389.435 178.543L370.943 160.051H152.864L134.372 178.543Z" fill="#78A017"/>
<path d="M353.084 178.543L284.789 110.247C283.59 109.048 281.964 108.375 280.269 108.375C278.574 108.375 276.949 109.048 275.748 110.247C272.076 113.92 267.193 115.943 261.998 115.943C256.804 115.943 251.92 113.921 248.248 110.248C247.049 109.048 245.423 108.375 243.727 108.375C242.032 108.375 240.406 109.048 239.207 110.247L170.911 178.543C169.083 180.372 168.536 183.12 169.527 185.509C170.515 187.898 172.847 189.456 175.432 189.456H348.565C351.149 189.456 353.482 187.898 354.47 185.509C355.459 183.12 354.912 180.371 353.084 178.543Z" fill="#78A017"/>
<path d="M170.909 178.542C169.081 180.371 168.534 183.119 169.525 185.508C170.513 187.898 172.846 189.455 175.43 189.455H348.563C351.147 189.455 353.48 187.898 354.468 185.508C355.458 183.119 354.911 180.371 353.084 178.542L334.592 160.05H189.4L170.909 178.542Z" fill="#6D8915"/>
<path d="M444.024 176.666H139.911H83.3926H72.9682C54.6116 176.666 39.5972 162.387 38.4072 144.331C38.4063 144.374 38.4004 144.416 38.4004 144.461V144.462V413.342C38.4004 438.151 58.5836 458.335 83.3926 458.335H444.025C447.556 458.335 450.417 455.474 450.417 451.943V183.058C450.417 179.528 447.555 176.666 444.024 176.666Z" fill="#A26D3E"/>
<path d="M450.423 286.463H381.62C355.922 286.463 335.014 307.369 335.014 333.069C335.014 358.767 355.92 379.676 381.62 379.676H450.423V286.463Z" fill="#7C3D1E"/>
<path d="M454.431 270.05H381.62C355.922 270.05 335.014 290.956 335.014 316.656C335.014 342.354 355.92 363.262 381.62 363.262H454.431C465.005 363.262 473.608 354.66 473.608 344.086V289.227C473.608 278.652 465.005 270.05 454.431 270.05Z" fill="#E0995B"/>
<path d="M387.027 295.8C375.53 295.8 366.176 305.155 366.176 316.652C366.176 328.149 375.53 337.503 387.027 337.503C398.524 337.503 407.879 328.149 407.879 316.652C407.879 305.155 398.524 295.8 387.027 295.8Z" fill="white"/>
</svg>
