<svg width="40" height="39" viewBox="0 0 40 39" fill="none" xmlns="http://www.w3.org/2000/svg">
<path d="M29.3027 8.70605H8.99271C7.5353 8.70605 6.34961 9.89174 6.34961 11.3492V11.7077C6.34961 13.1651 7.5353 14.3508 8.99271 14.3508H29.3028C29.5243 14.3508 29.7038 14.1714 29.7038 13.9499V9.10702C29.7037 8.88553 29.5242 8.70605 29.3027 8.70605Z" fill="#7C3D1E"/>
<path d="M6.45908 10.5977C6.38821 10.836 6.34961 11.088 6.34961 11.3491V11.7076C6.34961 13.165 7.5353 14.3507 8.99271 14.3507H29.3028C29.5243 14.3507 29.7038 14.1712 29.7038 13.9498V12.4879H8.99271C7.79459 12.4878 6.78332 11.6905 6.45908 10.5977Z" fill="#68321A"/>
<path d="M19.1294 7.4727L17.6061 5.94944C17.4495 5.79289 17.1956 5.79289 17.0389 5.94944L9.32251 13.6659C9.20782 13.7806 9.17354 13.953 9.23566 14.1029C9.29767 14.2528 9.44398 14.3505 9.60613 14.3505H12.6527C12.759 14.3505 12.861 14.3082 12.9363 14.233L19.1294 8.03987C19.2046 7.96464 19.2468 7.86269 19.2468 7.75631C19.2468 7.64994 19.2046 7.54799 19.1294 7.4727Z" fill="#78AA17"/>
<path d="M10.4835 12.5068L9.32349 13.6668C9.2088 13.7816 9.17451 13.954 9.23663 14.1038C9.29864 14.2537 9.44496 14.3514 9.6071 14.3514H12.6537C12.76 14.3514 12.862 14.3092 12.9372 14.234L14.6643 12.5069L10.4835 12.5068Z" fill="#6D8915"/>
<path d="M28.3703 13.6659L20.6539 5.94944C20.4973 5.79289 20.2434 5.79289 20.0867 5.94944L12.3704 13.6659C12.2557 13.7806 12.2214 13.953 12.2835 14.1029C12.3455 14.2528 12.4918 14.3505 12.654 14.3505H28.0868C28.249 14.3505 28.3953 14.2528 28.4573 14.1029C28.5193 13.953 28.485 13.7806 28.3703 13.6659Z" fill="#64CF13"/>
<path d="M12.3695 13.6658C12.2548 13.7806 12.2205 13.953 12.2827 14.1029C12.3447 14.2527 12.491 14.3504 12.6531 14.3504H28.086C28.2481 14.3504 28.3944 14.2527 28.4565 14.1029C28.5185 13.953 28.4842 13.7806 28.3696 13.6658L27.2096 12.5059H13.5295L12.3695 13.6658Z" fill="#78A017"/>
<path d="M26.0892 13.6663L21.8051 9.38206C21.7298 9.30688 21.6278 9.26465 21.5215 9.26465C21.4152 9.26465 21.3132 9.30688 21.2379 9.38206C21.0075 9.61251 20.7013 9.73941 20.3754 9.73941C20.0495 9.73941 19.7432 9.61256 19.5128 9.38211C19.4376 9.30688 19.3356 9.26465 19.2293 9.26465C19.1229 9.26465 19.0209 9.30688 18.9457 9.38206L14.6615 13.6663C14.5468 13.781 14.5125 13.9534 14.5746 14.1033C14.6367 14.2532 14.783 14.3508 14.9451 14.3508H25.8057C25.9678 14.3508 26.1142 14.2532 26.1762 14.1033C26.2382 13.9534 26.2038 13.7809 26.0892 13.6663Z" fill="#78A017"/>
<path d="M14.6624 13.6668C14.5477 13.7816 14.5134 13.954 14.5755 14.1038C14.6375 14.2537 14.7838 14.3514 14.946 14.3514H25.8066C25.9687 14.3514 26.115 14.2537 26.177 14.1038C26.2391 13.954 26.2048 13.7816 26.0902 13.6668L24.9302 12.5068H15.8223L14.6624 13.6668Z" fill="#6D8915"/>
<path d="M31.7944 13.5489H12.7174H9.17197H8.51805C7.36654 13.5489 6.42468 12.6531 6.35004 11.5205C6.34998 11.5232 6.34961 11.5258 6.34961 11.5287V11.5287V28.3956C6.34961 29.9519 7.6157 31.218 9.17197 31.218H31.7944C32.0159 31.218 32.1954 31.0385 32.1954 30.817V13.9498C32.1954 13.7284 32.0159 13.5489 31.7944 13.5489Z" fill="#A26D3E"/>
<path d="M32.1958 20.4355H27.8797C26.2677 20.4355 24.9561 21.747 24.9561 23.3592C24.9561 24.9712 26.2676 26.2828 27.8797 26.2828H32.1958V20.4355Z" fill="#7C3D1E"/>
<path d="M32.4471 19.4072H27.8797C26.2676 19.4072 24.9561 20.7187 24.9561 22.3308C24.9561 23.9429 26.2675 25.2545 27.8797 25.2545H32.4471C33.1104 25.2545 33.6501 24.7148 33.6501 24.0515V20.6102C33.6501 19.9468 33.1104 19.4072 32.4471 19.4072Z" fill="#E0995B"/>
<path d="M28.2191 21.0225C27.4979 21.0225 26.9111 21.6093 26.9111 22.3305C26.9111 23.0517 27.4979 23.6385 28.2191 23.6385C28.9404 23.6385 29.5272 23.0517 29.5272 22.3305C29.5272 21.6093 28.9404 21.0225 28.2191 21.0225Z" fill="white"/>
</svg>
