<svg width="35" height="36" viewBox="0 0 35 36" fill="none" xmlns="http://www.w3.org/2000/svg">
<path d="M33.681 14.2418L31.884 7.50447C31.3457 5.47145 29.9266 3.79022 27.9975 2.88417L23.045 0.566775C22.8811 0.493048 22.6955 0.479093 22.5209 0.535178C22.1963 0.58784 18.0353 2.53976 12.5446 0.559666C12.3986 0.485939 12.1558 0.471983 11.9491 0.566775L6.99662 2.8839C5.07126 3.78969 3.65558 5.47119 3.11729 7.50421L1.32028 14.2418C1.23819 14.5472 1.37724 14.8703 1.65562 15.028L7.27151 18.2122V30.2052C7.27151 31.4409 8.07375 32.5295 9.26453 32.912C14.5237 34.6007 20.2642 34.6675 25.7373 32.912C26.9281 32.5292 27.7303 31.4409 27.7303 30.2052V18.2122L33.3462 15.0278C33.6235 14.87 33.7628 14.547 33.681 14.2418ZM17.497 5.60495C15.3968 5.60495 13.6284 4.1657 13.1508 2.23458C16.6413 3.17196 18.959 2.94368 21.8435 2.23458C21.3657 4.16543 19.5935 5.60495 17.497 5.60495Z" fill="#2F363A"/>
<g clip-path="url(#clip0_5066_6291)">
<path fill-rule="evenodd" clip-rule="evenodd" d="M29.8164 31.678C29.8177 32.5793 29.4601 33.4441 28.8228 34.0815C28.1854 34.7189 27.3206 35.0764 26.4192 35.0751L8.58398 35.0751C11.8495 34.9333 15.0949 34.4898 18.2787 33.7502L19.2936 33.4785C23.8374 32.1875 26.2791 30.3276 27.3789 28.4209C28.8242 28.8453 29.8168 30.1716 29.8164 31.678Z" fill="#A56A43"/>
<path fill-rule="evenodd" clip-rule="evenodd" d="M28.1166 25.7322C28.1116 26.6776 27.8567 27.605 27.3777 28.4202C26.2778 30.3269 23.8361 32.1868 19.2924 33.4777L18.2775 33.7495C15.0936 34.4891 11.8482 34.9326 8.58274 35.0744C6.70652 35.0744 5.18555 33.5534 5.18555 31.6772C5.18555 30.4033 5.82252 29.4478 7.09647 28.7047C7.49169 28.4896 7.91263 28.3255 8.34918 28.2163C9.70661 27.9021 11.0845 27.6835 12.4725 27.5624L15.4366 27.1972C16.6117 27.0244 17.7736 26.7718 18.9144 26.4413L24.1673 23.4603C24.5118 23.102 24.8377 22.7264 25.144 22.335C25.144 22.335 28.1166 23.1843 28.1166 25.7322Z" fill="#CB8252"/>
<path fill-rule="evenodd" clip-rule="evenodd" d="M21.3222 17.6637C20.2605 19.7827 17.4918 20.7211 14.5872 21.2222L12.0775 21.5959C11.7718 21.6511 11.4788 21.7106 11.1985 21.7828C8.84597 17.9015 11.7081 15.9099 14.9524 14.6911C17.6192 13.689 15.8017 11.2939 15.8017 11.2939C19.6236 11.2939 22.5961 15.1158 21.3222 17.6637Z" fill="#CB8252"/>
<path fill-rule="evenodd" clip-rule="evenodd" d="M25.1422 22.3352C24.8359 22.7266 24.5099 23.1022 24.1655 23.4605L18.9126 26.4416C17.7718 26.7721 16.6098 27.0246 15.4347 27.1974L12.4707 27.5626C11.0826 27.6838 9.70478 27.9023 8.34735 28.2166C7.67096 27.5687 7.29413 26.6689 7.30696 25.7324C7.30696 23.6219 8.7635 22.3862 11.1967 21.7832C11.477 21.711 11.77 21.6515 12.0758 21.5963L14.5854 21.2226C17.49 20.7215 20.2587 19.7831 21.3204 17.6641C25.5669 17.6641 25.1422 22.3352 25.1422 22.3352Z" fill="#A56A43"/>
<path d="M21.3202 27.8549C22.9619 27.8549 24.2927 26.334 24.2927 24.4577C24.2927 22.5815 22.9619 21.0605 21.3202 21.0605C19.6785 21.0605 18.3477 22.5815 18.3477 24.4577C18.3477 26.334 19.6785 27.8549 21.3202 27.8549Z" fill="#ECF0F1"/>
<path d="M13.6776 27.8549C15.3193 27.8549 16.6502 26.334 16.6502 24.4577C16.6502 22.5815 15.3193 21.0605 13.6776 21.0605C12.0359 21.0605 10.7051 22.5815 10.7051 24.4577C10.7051 26.334 12.0359 27.8549 13.6776 27.8549Z" fill="#ECF0F1"/>
<path d="M14.1029 26.5814C15.041 26.5814 15.8015 25.6308 15.8015 24.4582C15.8015 23.2856 15.041 22.335 14.1029 22.335C13.1648 22.335 12.4043 23.2856 12.4043 24.4582C12.4043 25.6308 13.1648 26.5814 14.1029 26.5814Z" fill="#2FA8CC"/>
<path d="M20.8978 26.5814C21.8359 26.5814 22.5964 25.6308 22.5964 24.4582C22.5964 23.2856 21.8359 22.335 20.8978 22.335C19.9597 22.335 19.1992 23.2856 19.1992 24.4582C19.1992 25.6308 19.9597 26.5814 20.8978 26.5814Z" fill="#2FA8CC"/>
<path d="M14.1032 25.7325C14.5723 25.7325 14.9525 25.1621 14.9525 24.4585C14.9525 23.7549 14.5723 23.1846 14.1032 23.1846C13.6341 23.1846 13.2539 23.7549 13.2539 24.4585C13.2539 25.1621 13.6341 25.7325 14.1032 25.7325Z" fill="#35495E"/>
<path fill-rule="evenodd" clip-rule="evenodd" d="M17.5004 33.801C20.6776 33.801 21.5176 31.3703 21.7397 30.0849C21.7715 29.9314 21.7188 29.7725 21.6015 29.6683C21.4842 29.5642 21.3202 29.5307 21.1715 29.5805C18.7954 30.4162 16.2053 30.4162 13.8293 29.5805C13.6806 29.5305 13.5166 29.5638 13.3992 29.6679C13.2819 29.772 13.2292 29.9309 13.2611 30.0845C13.4832 31.3699 14.3232 33.801 17.5004 33.801Z" fill="#802F34"/>
<path d="M20.8962 25.7325C21.3652 25.7325 21.7455 25.1621 21.7455 24.4585C21.7455 23.7549 21.3652 23.1846 20.8962 23.1846C20.4271 23.1846 20.0469 23.7549 20.0469 24.4585C20.0469 25.1621 20.4271 25.7325 20.8962 25.7325Z" fill="#35495E"/>
<path d="M14.9528 24.4584C15.4219 24.4584 15.8021 24.0781 15.8021 23.6091C15.8021 23.14 15.4219 22.7598 14.9528 22.7598C14.4838 22.7598 14.1035 23.14 14.1035 23.6091C14.1035 24.0781 14.4838 24.4584 14.9528 24.4584Z" fill="#ECF0F1"/>
<path d="M21.7477 24.4584C22.2168 24.4584 22.597 24.0781 22.597 23.6091C22.597 23.14 22.2168 22.7598 21.7477 22.7598C21.2787 22.7598 20.8984 23.14 20.8984 23.6091C20.8984 24.0781 21.2787 24.4584 21.7477 24.4584Z" fill="#ECF0F1"/>
</g>
<defs>
<clipPath id="clip0_5066_6291">
<rect width="24.6296" height="24.6296" fill="white" transform="translate(5.18555 10.8701)"/>
</clipPath>
</defs>
</svg>
