<svg width="40" height="40" viewBox="0 0 40 40" fill="none" xmlns="http://www.w3.org/2000/svg">
<path fill-rule="evenodd" clip-rule="evenodd" d="M16.6657 5L16.4814 5.93641L15.7764 9.36284C14.6493 9.79355 13.6271 10.4043 12.7036 11.1286L9.25786 9.97572L8.33216 9.68858L7.85216 10.5157L5.48 14.4842L5 15.3115L5.70286 15.9265L8.36858 18.1957C8.27216 18.7893 8.14788 19.3764 8.14788 19.9999C8.14788 20.6235 8.27216 21.2107 8.36858 21.8043L5.70286 24.0735L5 24.6885L5.48 25.5156L7.85216 29.4843L8.33216 30.3135L9.25786 30.0243L12.7036 28.8714C13.6271 29.5957 14.6493 30.2063 15.7764 30.637L16.4814 34.0635L16.6657 35H23.3322L23.5186 34.0635L24.2214 30.637C25.3486 30.2063 26.3707 29.5957 27.2943 28.8714L30.74 30.0243L31.6657 30.3135L32.1479 29.4843L34.5179 25.5156L35 24.6885L34.295 24.0735L31.6293 21.8043C31.7279 21.2107 31.85 20.6235 31.85 19.9999C31.85 19.3764 31.7279 18.7893 31.6293 18.1957L34.295 15.9265L35 15.3115L34.5179 14.4842L32.1479 10.5157L31.6657 9.68858L30.74 9.97572L27.2943 11.1286C26.3707 10.4043 25.3486 9.79355 24.2214 9.36284L23.5186 5.93641L23.3322 5H16.6657Z" stroke="#B8B8B8" stroke-width="2" stroke-linecap="square" stroke-linejoin="round"/>
<path fill-rule="evenodd" clip-rule="evenodd" d="M24.2849 19.9999C24.2849 22.3656 22.3649 24.2857 19.9992 24.2857C17.6335 24.2857 15.7135 22.3656 15.7135 19.9999C15.7135 17.6342 17.6335 15.7143 19.9992 15.7143C22.3649 15.7143 24.2849 17.6342 24.2849 19.9999Z" stroke="#B8B8B8" stroke-width="2" stroke-linecap="square" stroke-linejoin="round"/>
</svg>
