<svg width="30" height="30" viewBox="0 0 30 30" fill="none" xmlns="http://www.w3.org/2000/svg">
<path fill-rule="evenodd" clip-rule="evenodd" d="M12.4993 3.75L12.3611 4.45231L11.8323 7.02213C10.987 7.34516 10.2204 7.80323 9.52768 8.34645L6.94339 7.48179L6.24912 7.26644L5.88912 7.88678L4.11 10.8632L3.75 11.4836L4.27715 11.9448L6.27644 13.6468C6.20412 14.0919 6.11091 14.5323 6.11091 15C6.11091 15.4676 6.20412 15.9081 6.27644 16.3532L4.27715 18.0552L3.75 18.5164L4.11 19.1367L5.88912 22.1132L6.24912 22.7351L6.94339 22.5182L9.52768 21.6536C10.2204 22.1968 10.987 22.6547 11.8323 22.9778L12.3611 25.5476L12.4993 26.25H17.4991L17.6389 25.5476L18.1661 22.9778C19.0114 22.6547 19.778 22.1968 20.4707 21.6536L23.055 22.5182L23.7493 22.7351L24.1109 22.1132L25.8884 19.1367L26.25 18.5164L25.7213 18.0552L23.722 16.3532C23.7959 15.9081 23.8875 15.4676 23.8875 15C23.8875 14.5323 23.7959 14.0919 23.722 13.6468L25.7213 11.9448L26.25 11.4836L25.8884 10.8632L24.1109 7.88678L23.7493 7.26644L23.055 7.48179L20.4707 8.34645C19.778 7.80323 19.0114 7.34516 18.1661 7.02213L17.6389 4.45231L17.4991 3.75H12.4993Z" stroke="#B8B8B8" stroke-width="2" stroke-linecap="square" stroke-linejoin="round"/>
<path fill-rule="evenodd" clip-rule="evenodd" d="M18.2137 15C18.2137 16.7742 16.7737 18.2143 14.9994 18.2143C13.2251 18.2143 11.7851 16.7742 11.7851 15C11.7851 13.2257 13.2251 11.7857 14.9994 11.7857C16.7737 11.7857 18.2137 13.2257 18.2137 15Z" stroke="#B8B8B8" stroke-width="2" stroke-linecap="square" stroke-linejoin="round"/>
</svg>
