<svg width="48" height="48" viewBox="0 0 48 48" fill="none" xmlns="http://www.w3.org/2000/svg">
<path d="M40.459 7.55859C39.471 7.55861 38.484 7.93332 37.7363 8.68164L19.248 27.1699L10.2656 18.1875C8.76951 16.6914 6.31364 16.6909 4.81836 18.1875L2.1289 20.877C0.632786 22.3731 0.632271 24.8289 2.1289 26.3242L16.5234 40.7188C18.0193 42.2147 20.4748 42.2147 21.9707 40.7188L45.873 16.8164C47.3685 15.3209 47.368 12.8674 45.873 11.3711V11.3691L43.1836 8.68164C42.4355 7.93358 41.4469 7.55858 40.459 7.55859ZM40.459 9.54688C40.9308 9.54689 41.4036 9.72976 41.7695 10.0957L44.457 12.7832C45.1881 13.5149 45.1876 14.6718 44.457 15.4023L20.5566 39.3047C19.8245 40.0368 18.6696 40.0368 17.9375 39.3047L3.54297 24.9102C2.8116 24.1794 2.81108 23.0229 3.54297 22.291L6.23242 19.6016C6.96313 18.8702 8.11968 18.8697 8.85156 19.6016L18.5391 29.291C18.632 29.3841 18.7423 29.458 18.8638 29.5084C18.9853 29.5588 19.1155 29.5848 19.2471 29.5848C19.3786 29.5848 19.5088 29.5588 19.6303 29.5084C19.7518 29.458 19.8622 29.3841 19.9551 29.291L39.1504 10.0957C39.5157 9.73002 39.9872 9.54686 40.459 9.54688Z" fill="white"/>
</svg>
